<svg width="216pt" height="205pt" viewBox="0.00 0.00 216.46 204.80" xmlns="http://www.w3.org/2000/svg" xmlns:xlink="http://www.w3.org/1999/xlink">
<g id="graph0" class="graph" transform="scale(1 1) rotate(0) translate(4 200.8)">
<title>EscalabilidadAltaDisponibilidad</title>
<polygon fill="white" stroke="none" points="-4,4 -4,-200.8 212.46,-200.8 212.46,4 -4,4"/>
<!-- Escalabilidad -->
<g id="node1" class="node">
<title>Escalabilidad</title>
<path fill="none" stroke="black" d="M185.95,-196.8C185.95,-196.8 22.51,-196.8 22.51,-196.8 16.51,-196.8 10.51,-190.8 10.51,-184.8 10.51,-184.8 10.51,-167.2 10.51,-167.2 10.51,-161.2 16.51,-155.2 22.51,-155.2 22.51,-155.2 185.95,-155.2 185.95,-155.2 191.95,-155.2 197.95,-161.2 197.95,-167.2 197.95,-167.2 197.95,-184.8 197.95,-184.8 197.95,-190.8 191.95,-196.8 185.95,-196.8"/>
<text text-anchor="middle" x="104.23" y="-180.2" font-family="Times,serif" font-size="14.00">Escalabilidad Horizontal</text>
<text text-anchor="middle" x="104.23" y="-163.4" font-family="Times,serif" font-size="14.00">(Balanceadores, Auto Scaling)</text>
</g>
<!-- AltaDisponibilidad -->
<g id="node2" class="node">
<title>AltaDisponibilidad</title>
<path fill="none" stroke="black" d="M196.46,-119.2C196.46,-119.2 12,-119.2 12,-119.2 6,-119.2 0,-113.2 0,-107.2 0,-107.2 0,-89.6 0,-89.6 0,-83.6 6,-77.6 12,-77.6 12,-77.6 196.46,-77.6 196.46,-77.6 202.46,-77.6 208.46,-83.6 208.46,-89.6 208.46,-89.6 208.46,-107.2 208.46,-107.2 208.46,-113.2 202.46,-119.2 196.46,-119.2"/>
<text text-anchor="middle" x="104.23" y="-102.6" font-family="Times,serif" font-size="14.00">Alta Disponibilidad</text>
<text text-anchor="middle" x="104.23" y="-85.8" font-family="Times,serif" font-size="14.00">(Replicación, Regiones Múltiples)</text>
</g>
<!-- Escalabilidad&#45;&gt;AltaDisponibilidad -->
<g id="edge1" class="edge">
<title>Escalabilidad-&gt;AltaDisponibilidad</title>
<path fill="none" stroke="black" d="M104.23,-154.74C104.23,-147.39 104.23,-138.91 104.23,-130.83"/>
<polygon fill="black" stroke="black" points="107.73,-130.97 104.23,-120.97 100.73,-130.97 107.73,-130.97"/>
</g>
<!-- Recuperacion -->
<g id="node3" class="node">
<title>Recuperacion</title>
<path fill="none" stroke="black" d="M180.69,-41.6C180.69,-41.6 27.77,-41.6 27.77,-41.6 21.77,-41.6 15.77,-35.6 15.77,-29.6 15.77,-29.6 15.77,-12 15.77,-12 15.77,-6 21.77,0 27.77,0 27.77,0 180.69,0 180.69,0 186.69,0 192.69,-6 192.69,-12 192.69,-12 192.69,-29.6 192.69,-29.6 192.69,-35.6 186.69,-41.6 180.69,-41.6"/>
<text text-anchor="middle" x="104.23" y="-25" font-family="Times,serif" font-size="14.00">Recuperación ante Desastres</text>
<text text-anchor="middle" x="104.23" y="-8.2" font-family="Times,serif" font-size="14.00">(Backups, DRP)</text>
</g>
<!-- AltaDisponibilidad&#45;&gt;Recuperacion -->
<g id="edge2" class="edge">
<title>AltaDisponibilidad-&gt;Recuperacion</title>
<path fill="none" stroke="black" d="M104.23,-77.14C104.23,-69.79 104.23,-61.31 104.23,-53.23"/>
<polygon fill="black" stroke="black" points="107.73,-53.37 104.23,-43.37 100.73,-53.37 107.73,-53.37"/>
</g>
</g>
</svg>