<svg width="380pt" height="282pt" viewBox="0.00 0.00 379.76 282.40" xmlns="http://www.w3.org/2000/svg" xmlns:xlink="http://www.w3.org/1999/xlink">
<g id="graph0" class="graph" transform="scale(1 1) rotate(0) translate(4 278.4)">
<title>InfraestructuraServidores</title>
<polygon fill="white" stroke="none" points="-4,4 -4,-278.4 375.76,-278.4 375.76,4 -4,4"/>
<!-- Presentacion -->
<g id="node1" class="node">
<title>Presentacion</title>
<path fill="none" stroke="black" d="M247.38,-274.4C247.38,-274.4 134.87,-274.4 134.87,-274.4 128.87,-274.4 122.87,-268.4 122.87,-262.4 122.87,-262.4 122.87,-244.8 122.87,-244.8 122.87,-238.8 128.87,-232.8 134.87,-232.8 134.87,-232.8 247.38,-232.8 247.38,-232.8 253.38,-232.8 259.38,-238.8 259.38,-244.8 259.38,-244.8 259.38,-262.4 259.38,-262.4 259.38,-268.4 253.38,-274.4 247.38,-274.4"/>
<text text-anchor="middle" x="191.13" y="-257.8" font-family="Times,serif" font-size="14.00">Capa de Presentación</text>
<text text-anchor="middle" x="191.13" y="-241" font-family="Times,serif" font-size="14.00">(Servidores Web)</text>
</g>
<!-- Aplicacion -->
<g id="node2" class="node">
<title>Aplicacion</title>
<path fill="none" stroke="black" d="M274.22,-196.8C274.22,-196.8 108.04,-196.8 108.04,-196.8 102.04,-196.8 96.04,-190.8 96.04,-184.8 96.04,-184.8 96.04,-167.2 96.04,-167.2 96.04,-161.2 102.04,-155.2 108.04,-155.2 108.04,-155.2 274.22,-155.2 274.22,-155.2 280.22,-155.2 286.22,-161.2 286.22,-167.2 286.22,-167.2 286.22,-184.8 286.22,-184.8 286.22,-190.8 280.22,-196.8 274.22,-196.8"/>
<text text-anchor="middle" x="191.13" y="-180.2" font-family="Times,serif" font-size="14.00">Capa de Aplicación</text>
<text text-anchor="middle" x="191.13" y="-163.4" font-family="Times,serif" font-size="14.00">(Contenedores/Microservicios)</text>
</g>
<!-- Presentacion&#45;&gt;Aplicacion -->
<g id="edge1" class="edge">
<title>Presentacion-&gt;Aplicacion</title>
<path fill="none" stroke="black" d="M191.13,-232.34C191.13,-224.99 191.13,-216.51 191.13,-208.43"/>
<polygon fill="black" stroke="black" points="194.63,-208.57 191.13,-198.57 187.63,-208.57 194.63,-208.57"/>
</g>
<!-- Datos -->
<g id="node3" class="node">
<title>Datos</title>
<path fill="none" stroke="black" d="M176.26,-119.2C176.26,-119.2 12,-119.2 12,-119.2 6,-119.2 0,-113.2 0,-107.2 0,-107.2 0,-89.6 0,-89.6 0,-83.6 6,-77.6 12,-77.6 12,-77.6 176.26,-77.6 176.26,-77.6 182.26,-77.6 188.26,-83.6 188.26,-89.6 188.26,-89.6 188.26,-107.2 188.26,-107.2 188.26,-113.2 182.26,-119.2 176.26,-119.2"/>
<text text-anchor="middle" x="94.13" y="-102.6" font-family="Times,serif" font-size="14.00">Capa de Datos</text>
<text text-anchor="middle" x="94.13" y="-85.8" font-family="Times,serif" font-size="14.00">(Bases de Datos SQL/NoSQL)</text>
</g>
<!-- Aplicacion&#45;&gt;Datos -->
<g id="edge2" class="edge">
<title>Aplicacion-&gt;Datos</title>
<path fill="none" stroke="black" d="M165.14,-154.74C153.96,-146.03 140.73,-135.72 128.73,-126.37"/>
<polygon fill="black" stroke="black" points="131.09,-123.77 121.05,-120.38 126.79,-129.29 131.09,-123.77"/>
</g>
<!-- Red -->
<g id="node5" class="node">
<title>Red</title>
<path fill="none" stroke="black" d="M359.76,-119.2C359.76,-119.2 218.49,-119.2 218.49,-119.2 212.49,-119.2 206.49,-113.2 206.49,-107.2 206.49,-107.2 206.49,-89.6 206.49,-89.6 206.49,-83.6 212.49,-77.6 218.49,-77.6 218.49,-77.6 359.76,-77.6 359.76,-77.6 365.76,-77.6 371.76,-83.6 371.76,-89.6 371.76,-89.6 371.76,-107.2 371.76,-107.2 371.76,-113.2 365.76,-119.2 359.76,-119.2"/>
<text text-anchor="middle" x="289.13" y="-102.6" font-family="Times,serif" font-size="14.00">Capa de Red</text>
<text text-anchor="middle" x="289.13" y="-85.8" font-family="Times,serif" font-size="14.00">(Balanceadores, Subredes)</text>
</g>
<!-- Aplicacion&#45;&gt;Red -->
<g id="edge4" class="edge">
<title>Aplicacion-&gt;Red</title>
<path fill="none" stroke="black" d="M217.39,-154.74C228.69,-146.03 242.05,-135.72 254.17,-126.37"/>
<polygon fill="black" stroke="black" points="256.16,-129.26 261.94,-120.38 251.88,-123.71 256.16,-129.26"/>
</g>
<!-- Almacenamiento -->
<g id="node4" class="node">
<title>Almacenamiento</title>
<path fill="none" stroke="black" d="M168.29,-41.6C168.29,-41.6 19.97,-41.6 19.97,-41.6 13.97,-41.6 7.97,-35.6 7.97,-29.6 7.97,-29.6 7.97,-12 7.97,-12 7.97,-6 13.97,0 19.97,0 19.97,0 168.29,0 168.29,0 174.29,0 180.29,-6 180.29,-12 180.29,-12 180.29,-29.6 180.29,-29.6 180.29,-35.6 174.29,-41.6 168.29,-41.6"/>
<text text-anchor="middle" x="94.13" y="-25" font-family="Times,serif" font-size="14.00">Capa de Almacenamiento</text>
<text text-anchor="middle" x="94.13" y="-8.2" font-family="Times,serif" font-size="14.00">(S3, Google Cloud Storage)</text>
</g>
<!-- Datos&#45;&gt;Almacenamiento -->
<g id="edge3" class="edge">
<title>Datos-&gt;Almacenamiento</title>
<path fill="none" stroke="black" d="M94.13,-77.14C94.13,-69.79 94.13,-61.31 94.13,-53.23"/>
<polygon fill="black" stroke="black" points="97.63,-53.37 94.13,-43.37 90.63,-53.37 97.63,-53.37"/>
</g>
</g>
</svg>